<?xml version="1.0" encoding="UTF-8" standalone="no"?>
<svg width="100%" height="100%" viewBox="0 0 2048 1536" version="1.1" xmlns="http://www.w3.org/2000/svg" xmlns:xlink="http://www.w3.org/1999/xlink" xml:space="preserve" style="fill-rule:evenodd;clip-rule:evenodd;stroke-linecap:round;stroke-linejoin:round;stroke-miterlimit:1.5;">
    <g id="Layer1">
        <path d="M1401.1,894.008L1405.41,780.901L1401.1,894.008ZM1401.1,894.008C1382.34,925.403 1362.02,956.562 1341.99,984.088L1264.94,1084.28C1162.41,1189.97 1018.73,1278.16 903.381,1320.15L682.283,1351.81C574.296,1354.4 453.768,1347.1 446.894,1321.54C430.829,1261.81 386.708,1203.55 426.002,1186.38C445.183,1178 465.357,1163.99 496.832,1146.08L787.835,1017.78C923.509,941.865 1052.23,812.339 1091.63,718.628C1094.93,710.779 1108.56,707.293 1134.95,686.68C1134.95,686.68 1104.29,736.642 1134.95,686.68C1234.68,465.414 1281.34,53.078 1432.63,187.033C1532.93,275.84 1498.93,517.807 1405.41,780.901" style="fill:#F5D020;stroke:none;"/>
    </g>
    <g>
        <path d="M1343.82,170.673C1297.91,123.597 1233.78,98.601 1151.42,98.601C918.819,98.601 787.829,299.537 767.235,654.694L766.872,788.871C766.872,1058.81 810.485,1205.29 894.199,1311.2C946.858,1378.37 1017.07,1411.95 1104.84,1411.95C1215.55,1411.95 1270.91,1344.78 1270.91,1210.46C1270.91,1109.71 1272.81,1077.79 1261.47,1069.74C1242.47,1056.27 1224.25,1056.79 1187.77,1055.64L1133.58,1054.74C1085.78,1053.88 1088.21,987.622 1131.16,987.659C1178.42,987.699 1237.83,988.305 1309.39,989.596L1476.39,992.873L1519.64,1158.53C1384.97,1469.68 1230.41,1478.71 1084.58,1478.71C892.849,1478.71 732.509,1411.2 603.562,1276.18C474.615,1141.16 410.142,973.055 410.142,771.871C410.142,558.534 476.303,380.979 608.626,239.205C740.948,97.431 907.026,26.544 1106.86,26.544C1189.22,26.544 1253.88,34.833 1341.65,75.339C1374.06,90.192 1381.6,89.115 1393.76,89.115C1415.36,89.115 1438.46,79.113 1458.4,49.564C1493.64,-2.654 1530.51,19.863 1527.3,59.254C1526.12,73.66 1450.71,200.511 1450.71,200.511C1450.71,200.511 1416.49,163.634 1385.53,160.836C1365.86,159.057 1343.82,170.673 1343.82,170.673Z" style="fill:white;fill-rule:nonzero;stroke:none;"/>
    </g>
    <g transform="matrix(2.81767,0,0,2.81767,-1620.67,-998.035)">
        <path d="M979.551,674.465C1000.3,633.896 973.316,568.398 933.018,561.032C890.423,553.246 865.413,571.106 851.571,582.465C823.587,605.428 819.26,659.904 825.752,652.679C846.009,630.135 883.92,606.505 917.261,608.373C941.367,609.723 964.7,625.222 973.343,648.777C980.004,666.931 979.551,674.465 979.551,674.465C979.551,674.465 1009.24,639.729 1058.9,632.753C1101.02,626.836 1128.16,648.932 1140.26,669.792C1157.49,699.491 1143.8,773.151 1122.69,810.333C1118.04,818.51 1119.89,784.75 1113.78,756.196C1107.85,728.462 1098.7,693.588 1083.47,680.091C1068.12,666.487 1053.31,658.372 1024,661.24C996.57,663.925 979.551,674.465 979.551,674.465" style="fill:#F5D020;stroke:none;"/>
    </g>
    <path d="M1139.99,899.61C1139.99,899.61 1058.55,1092.8 821.073,1153.55" style="fill:none;stroke:#F5D020;stroke-width:30px;"/>
</svg>
